<?xml version="1.0" encoding="UTF-8" standalone="no"?>
<!DOCTYPE svg PUBLIC "-//W3C//DTD SVG 1.1//EN"
 "http://www.w3.org/Graphics/SVG/1.1/DTD/svg11.dtd">
<!-- Generated by graphviz version 2.40.1 (20161225.0304)
 -->
<!-- Title: snakemake_dag Pages: 1 -->
<svg width="313pt" height="332pt"
 viewBox="0.00 0.00 313.00 332.00" xmlns="http://www.w3.org/2000/svg" xmlns:xlink="http://www.w3.org/1999/xlink">
<g id="graph0" class="graph" transform="scale(1 1) rotate(0) translate(4 328)">
<title>snakemake_dag</title>
<polygon fill="#ffffff" stroke="transparent" points="-4,4 -4,-328 309,-328 309,4 -4,4"/>
<!-- 0 -->
<g id="node1" class="node">
<title>0</title>
<path fill="none" stroke="#d85656" stroke-width="2" d="M143.5,-36C143.5,-36 33.5,-36 33.5,-36 27.5,-36 21.5,-30 21.5,-24 21.5,-24 21.5,-12 21.5,-12 21.5,-6 27.5,0 33.5,0 33.5,0 143.5,0 143.5,0 149.5,0 155.5,-6 155.5,-12 155.5,-12 155.5,-24 155.5,-24 155.5,-30 149.5,-36 143.5,-36"/>
<text text-anchor="middle" x="88.5" y="-15.5" font-family="sans" font-size="10.00" fill="#000000">img_wavefront_velocity</text>
</g>
<!-- 1 -->
<g id="node2" class="node">
<title>1</title>
<path fill="none" stroke="#d8ac56" stroke-width="2" d="M169.5,-108C169.5,-108 89.5,-108 89.5,-108 83.5,-108 77.5,-102 77.5,-96 77.5,-96 77.5,-84 77.5,-84 77.5,-78 83.5,-72 89.5,-72 89.5,-72 169.5,-72 169.5,-72 175.5,-72 181.5,-78 181.5,-84 181.5,-84 181.5,-96 181.5,-96 181.5,-102 175.5,-108 169.5,-108"/>
<text text-anchor="middle" x="129.5" y="-87.5" font-family="sans" font-size="10.00" fill="#000000">img_up_detection</text>
</g>
<!-- 1&#45;&gt;0 -->
<g id="edge1" class="edge">
<title>1&#45;&gt;0</title>
<path fill="none" stroke="#c0c0c0" stroke-width="2" d="M119.154,-71.8314C114.5763,-63.7925 109.0948,-54.1666 104.0412,-45.2918"/>
<polygon fill="#c0c0c0" stroke="#c0c0c0" stroke-width="2" points="106.9752,-43.3712 98.9853,-36.4133 100.8923,-46.8351 106.9752,-43.3712"/>
</g>
<!-- 2 -->
<g id="node3" class="node">
<title>2</title>
<path fill="none" stroke="#d88556" stroke-width="2" d="M89,-252C89,-252 12,-252 12,-252 6,-252 0,-246 0,-240 0,-240 0,-228 0,-228 0,-222 6,-216 12,-216 12,-216 89,-216 89,-216 95,-216 101,-222 101,-228 101,-228 101,-240 101,-240 101,-246 95,-252 89,-252"/>
<text text-anchor="middle" x="50.5" y="-231.5" font-family="sans" font-size="10.00" fill="#000000">img_find_contour</text>
</g>
<!-- 2&#45;&gt;0 -->
<g id="edge2" class="edge">
<title>2&#45;&gt;0</title>
<path fill="none" stroke="#c0c0c0" stroke-width="2" d="M51.0791,-215.7747C52.3606,-185.5274 56.3632,-123.216 68.5,-72 70.5877,-63.1901 73.7012,-53.8555 76.8535,-45.47"/>
<polygon fill="#c0c0c0" stroke="#c0c0c0" stroke-width="2" points="80.1158,-46.7377 80.5127,-36.1503 73.6001,-44.1794 80.1158,-46.7377"/>
</g>
<!-- 3 -->
<g id="node4" class="node">
<title>3</title>
<path fill="none" stroke="#56a9d8" stroke-width="2" d="M174,-180C174,-180 89,-180 89,-180 83,-180 77,-174 77,-168 77,-168 77,-156 77,-156 77,-150 83,-144 89,-144 89,-144 174,-144 174,-144 180,-144 186,-150 186,-156 186,-156 186,-168 186,-168 186,-174 180,-180 174,-180"/>
<text text-anchor="middle" x="131.5" y="-159.5" font-family="sans" font-size="10.00" fill="#000000">img_preprocessing</text>
</g>
<!-- 2&#45;&gt;3 -->
<g id="edge7" class="edge">
<title>2&#45;&gt;3</title>
<path fill="none" stroke="#c0c0c0" stroke-width="2" d="M70.9397,-215.8314C80.8205,-207.0485 92.8324,-196.3712 103.545,-186.8489"/>
<polygon fill="#c0c0c0" stroke="#c0c0c0" stroke-width="2" points="105.918,-189.4224 111.0668,-180.1628 101.2674,-184.1906 105.918,-189.4224"/>
</g>
<!-- 3&#45;&gt;1 -->
<g id="edge3" class="edge">
<title>3&#45;&gt;1</title>
<path fill="none" stroke="#c0c0c0" stroke-width="2" d="M130.9953,-143.8314C130.7814,-136.131 130.5271,-126.9743 130.2894,-118.4166"/>
<polygon fill="#c0c0c0" stroke="#c0c0c0" stroke-width="2" points="133.7879,-118.3122 130.0115,-108.4133 126.7906,-118.5066 133.7879,-118.3122"/>
</g>
<!-- 4 -->
<g id="node5" class="node">
<title>4</title>
<path fill="none" stroke="#80d856" stroke-width="2" stroke-dasharray="5,2" d="M232.5,-324C232.5,-324 26.5,-324 26.5,-324 20.5,-324 14.5,-318 14.5,-312 14.5,-312 14.5,-300 14.5,-300 14.5,-294 20.5,-288 26.5,-288 26.5,-288 232.5,-288 232.5,-288 238.5,-288 244.5,-294 244.5,-300 244.5,-300 244.5,-312 244.5,-312 244.5,-318 238.5,-324 232.5,-324"/>
<text text-anchor="middle" x="129.5" y="-309" font-family="sans" font-size="10.00" fill="#000000">img_to_neo</text>
<text text-anchor="middle" x="129.5" y="-298" font-family="sans" font-size="10.00" fill="#000000">image_path: LENS/170110_mouse2_deep/t1</text>
</g>
<!-- 4&#45;&gt;2 -->
<g id="edge4" class="edge">
<title>4&#45;&gt;2</title>
<path fill="none" stroke="#c0c0c0" stroke-width="2" d="M109.565,-287.8314C100.0217,-279.1337 88.4401,-268.5783 78.0694,-259.1265"/>
<polygon fill="#c0c0c0" stroke="#c0c0c0" stroke-width="2" points="80.1772,-256.3121 70.4287,-252.1628 75.462,-261.4857 80.1772,-256.3121"/>
</g>
<!-- 4&#45;&gt;3 -->
<g id="edge5" class="edge">
<title>4&#45;&gt;3</title>
<path fill="none" stroke="#c0c0c0" stroke-width="2" d="M129.7533,-287.7623C130.0944,-263.201 130.7049,-219.2474 131.1062,-190.3541"/>
<polygon fill="#c0c0c0" stroke="#c0c0c0" stroke-width="2" points="134.6094,-190.1373 131.2488,-180.0896 127.6101,-190.04 134.6094,-190.1373"/>
</g>
<!-- 5 -->
<g id="node6" class="node">
<title>5</title>
<path fill="none" stroke="#5682d8" stroke-width="2" d="M293,-252C293,-252 170,-252 170,-252 164,-252 158,-246 158,-240 158,-240 158,-228 158,-228 158,-222 164,-216 170,-216 170,-216 293,-216 293,-216 299,-216 305,-222 305,-228 305,-228 305,-240 305,-240 305,-246 299,-252 293,-252"/>
<text text-anchor="middle" x="231.5" y="-231.5" font-family="sans" font-size="10.00" fill="#000000">img_calculate_background</text>
</g>
<!-- 4&#45;&gt;5 -->
<g id="edge8" class="edge">
<title>4&#45;&gt;5</title>
<path fill="none" stroke="#c0c0c0" stroke-width="2" d="M155.2389,-287.8314C168.0437,-278.7927 183.6909,-267.7476 197.4719,-258.0198"/>
<polygon fill="#c0c0c0" stroke="#c0c0c0" stroke-width="2" points="199.618,-260.7891 205.7693,-252.1628 195.5812,-255.0703 199.618,-260.7891"/>
</g>
<!-- 5&#45;&gt;3 -->
<g id="edge6" class="edge">
<title>5&#45;&gt;3</title>
<path fill="none" stroke="#c0c0c0" stroke-width="2" d="M206.2658,-215.8314C193.712,-206.7927 178.3717,-195.7476 164.8609,-186.0198"/>
<polygon fill="#c0c0c0" stroke="#c0c0c0" stroke-width="2" points="166.8866,-183.1655 156.7261,-180.1628 162.7964,-188.8463 166.8866,-183.1655"/>
</g>
</g>
</svg>
