<?xml version="1.0"?>
 <!-- Generator: Adobe Illustrator 27.2.0, SVG Export Plug-In . SVG Version: 6.00 Build 0) --> <svg version="1.1" x="0px" y="0px" viewBox="0 0 578.73016 598.72536" xml:space="preserve" id="svg98" sodipodi:docname="2023-02-01 cobrawap -RG MD.svg" inkscape:version="1.2.1 (9c6d41e410, 2022-07-14)" width="578.73" height="598.725" xmlns:inkscape="http://www.inkscape.org/namespaces/inkscape" xmlns:sodipodi="http://sodipodi.sourceforge.net/DTD/sodipodi-0.dtd" xmlns:xlink="http://www.w3.org/1999/xlink" xmlns="http://www.w3.org/2000/svg" xmlns:svg="http://www.w3.org/2000/svg" xmlns:rdf="http://www.w3.org/1999/02/22-rdf-syntax-ns#" xmlns:cc="http://creativecommons.org/ns#" xmlns:dc="http://purl.org/dc/elements/1.1/" xmlns:x="adobe:ns:meta/" xmlns:xmp="http://ns.adobe.com/xap/1.0/" xmlns:xmpgimg="http://ns.adobe.com/xap/1.0/g/img/" xmlns:xmpmm="http://ns.adobe.com/xap/1.0/mm/" xmlns:stref="http://ns.adobe.com/xap/1.0/sType/ResourceRef#" xmlns:stevt="http://ns.adobe.com/xap/1.0/sType/ResourceEvent#" xmlns:illustrator="http://ns.adobe.com/illustrator/1.0/" xmlns:pdf="http://ns.adobe.com/pdf/1.3/" xmlns:xmptpg="http://ns.adobe.com/xap/1.0/t/pg/" xmlns:stdim="http://ns.adobe.com/xap/1.0/sType/Dimensions#" xmlns:stfnt="http://ns.adobe.com/xap/1.0/sType/Font#" xmlns:xmpg="http://ns.adobe.com/xap/1.0/g/" xmlns:i="&amp;#38;ns_ai;"><defs id="defs102"><color-profile name="sRGB-display-profile-with-display-hardware-configuration-data-derived-from-calibration" xlink:href="../../../../../../../WINDOWS/system32/spool/drivers/color/CalibratedDisplayProfile-6.icc" id="color-profile2543"></color-profile><color-profile name="Adobe-RGB--1998-" xlink:href="../../../../../../../WINDOWS/system32/spool/drivers/color/AdobeRGB1998.icc" id="color-profile2545"></color-profile> </defs><title id="title2172">COBRA WAP Logo</title> <style type="text/css" id="style2"> .st0{fill:#2D3280;} .st1{fill:#FAAA01;} .st2{display:none;} </style> <metadata id="metadata4">   </metadata>  <g inkscape:groupmode="layer" id="layer1" inkscape:label="logo and font" transform="translate(-65.269858,-10.041517)"><g id="g44"> <path class="st1" d="m 510.91,386.68 c 0.01,0.15 -0.24,3.5 -0.73,4.85 -1.12,3.05 -3.45,5.47 -6.59,7.07 -2.55,1.3 -5.63,2.05 -9.01,2.18 -0.64,0.02 -1.28,0 -1.93,-0.07 -0.26,-0.03 -0.52,-0.06 -0.77,-0.1 -0.46,-0.06 -0.92,-0.14 -1.39,-0.24 -2.87,-0.59 -5.89,-1.68 -9.01,-2.35 -0.3,-0.05 -0.6,-0.11 -0.9,-0.17 -3.74,-0.61 -7.99,-0.03 -12.03,2.16 0.39,0 -11.35,8.95 -12.69,10.17 -1.01,0.92 -4.67,4.15 -7.47,6.54 -0.02,0.01 -0.03,0.02 -0.04,0.04 -0.3,0.26 -0.59,0.5 -0.86,0.72 -0.1,0.09 -0.2,0.18 -0.3,0.26 -0.48,0.41 -0.86,0.73 -1.11,0.92 -0.04,0.04 -0.08,0.07 -0.12,0.1 0,-0.01 0.01,-0.02 0.02,-0.03 0,-0.01 0.01,-0.02 0.01,-0.02 0.23,-0.37 1.72,-2.67 3.57,-5.56 0.28,-0.43 0.57,-0.87 0.87,-1.33 0.39,-0.61 0.79,-1.23 1.19,-1.85 0.28,-0.43 0.55,-0.86 0.83,-1.29 0.83,-1.29 1.65,-2.58 2.4,-3.77 0.29,-0.45 0.57,-0.89 0.83,-1.31 0.66,-1.05 1.24,-1.99 1.69,-2.73 2.11,-3.48 7.8,-9.09 12.41,-10.75 10.34,-4 20.15,-0.84 23.61,-2.82 1.45,-0.93 1.88,-3.86 1.79,-4.45 -0.15,-1.4 -0.72,-2.77 -1.88,-4.34 0,0 -0.01,-0.01 -0.01,-0.02 -0.52,-0.71 -1.16,-1.45 -1.92,-2.25 -1.44,-1.54 -8.38,-7.57 -10.25,-9.1 -10.82,-8.92 -17.14,-16.86 -20.89,-23.94 -0.01,-0.01 -0.01,-0.01 -0.01,-0.02 -4.37,-8.26 -5.85,-15.31 -5.68,-21.49 0.27,-11.1 3.55,-20.39 10.03,-31.79 4.21,-7.41 11.13,-16.59 13.96,-27.59 1.04,-5.09 1.68,-9.28 1.69,-12.06 0.04,-17.73 -7.26,-29.44 -15.38,-39.25 -0.08,-0.11 -0.21,-0.27 -0.36,-0.45 -0.25,-0.28 -0.48,-0.56 -0.71,-0.84 -0.58,-0.69 -1.22,-1.42 -1.52,-1.76 -0.34,-0.39 -0.74,-0.85 -1.17,-1.36 -0.16,-0.17 -0.31,-0.36 -0.47,-0.53 -0.14,-0.16 -0.28,-0.33 -0.43,-0.5 -8.72,-9.79 -16.92,-18.34 -16.85,-30.56 0.05,-8.05 1.63,-14.68 4.1,-20.32 5.97,-13.67 17.14,-21.49 24.16,-29.5 14.81,-16.89 -1.39,-40.9 -22.36,-15.12 L 432.99,128 c -3.16,9.48 -6.41,18.15 -11.08,24.89 0,0 -0.02,0.01 -0.02,0.02 -0.2,0.3 -0.41,0.59 -0.62,0.88 -5.92,8.06 -28.39,29.35 -47.96,29.34 -4.51,0 -9.52,-0.94 -14.73,-2.65 -3.95,-1.26 -7.98,-2.97 -12.1,-5.12 -6.13,-3.15 -12.24,-7.14 -17.89,-11.72 -0.08,-0.07 -0.17,-0.14 -0.26,-0.21 -8.98,-7.29 -16.78,-16.05 -21.66,-25.23 -19.06,-35.87 -5.71,-119.59 46.74,-113.52 0,0 39.76,-1.31 26.17,19.45 -2.47,0.32 -3.52,0.44 -3.96,1.12 -0.38,0.6 -0.28,1.63 -0.27,3.63 0.01,0.48 -0.24,1.51 -0.45,1.94 -1.53,3.13 -4.62,6.3 -7.09,8.23 -4.64,3.62 -11.94,7.68 -11.94,7.68 -1.91,9.56 6.73,19.43 11.45,24.17 7.26,7.29 17.46,11.59 33.45,11.59 25.31,0 40.52,-17.28 43.07,-20.18 16.38,-18.62 39.15,-23.26 55.16,-11.39 3.72,2.76 10.99,9.46 11.31,25.38 0.34,16.08 -2.83,29.16 -10.48,38.9 -12.32,15.68 -24.07,22.08 -24.07,39.51 0,22.37 35.81,41.49 34.37,75.19 -0.01,0.23 -0.02,0.47 -0.03,0.71 -0.7,12 -10.79,23.44 -17.08,31.4 -0.77,0.95 -1.51,1.91 -2.22,2.88 -0.38,0.53 -0.73,1.04 -1.05,1.52 -7.38,10.62 -13.16,22.73 -13.81,35.02 -0.13,9.77 2.44,18.2 6.15,24.99 4.64,9.17 11.27,15.94 14,18.39 0,0 2.14,1.99 4.24,3.96 1.08,1.02 2.15,2.04 2.91,2.77 4.3,4.74 7.46,9.66 7.67,15.14 z" id="path26"></path><path class="st1" d="m 510.91,386.68 c 0.01,0.15 -0.24,3.5 -0.73,4.85 -1.12,3.05 -3.45,5.47 -6.59,7.07 -2.55,1.3 -5.63,2.05 -9.01,2.18 -0.64,0.02 -1.28,0 -1.93,-0.07 -0.26,-0.03 -0.52,-0.06 -0.77,-0.1 -0.46,-0.06 -0.92,-0.14 -1.39,-0.24 -2.85,-0.56 -5.83,-1.61 -9.01,-2.35 -0.3,-0.05 -0.6,-0.11 -0.9,-0.17 -2.92,-0.58 -6.19,-1.31 -11.82,1.85 -0.14,0.08 -0.28,0.16 -0.42,0.25 -0.08,0.04 -0.17,0.09 -0.25,0.14 -0.46,0.26 -1.02,0.64 -1.67,1.12 -0.05,0.02 -0.09,0.06 -0.14,0.1 -3.05,2.24 -7.86,6.46 -12.06,10.19 -0.04,0.04 -0.07,0.07 -0.1,0.1 -1.04,0.92 -2.03,1.81 -2.95,2.63 -1.26,1.12 -2.38,2.13 -3.28,2.91 -0.14,0.12 -0.27,0.23 -0.4,0.34 -0.1,0.09 -0.2,0.18 -0.3,0.26 -0.48,0.41 -0.86,0.73 -1.11,0.92 -0.03,0.02 -0.06,0.04 -0.09,0.05 0,0 -0.01,0.01 -0.01,0.02 -0.02,0 -0.03,0.01 -0.04,0.02 0.1,-0.18 1.65,-2.56 3.62,-5.6 0.28,-0.43 0.57,-0.87 0.87,-1.33 0.39,-0.61 0.79,-1.23 1.19,-1.85 0.28,-0.43 0.55,-0.86 0.83,-1.29 0.82,-1.29 1.64,-2.58 2.4,-3.77 0.29,-0.45 0.57,-0.89 0.83,-1.31 0.66,-1.05 1.24,-1.99 1.69,-2.73 2.11,-3.48 7.8,-9.09 12.41,-10.75 10.34,-4 20.15,-0.84 23.61,-2.82 1.45,-0.93 1.88,-3.86 1.79,-4.45 -0.15,-1.4 -0.72,-2.77 -1.88,-4.34 0,0 -0.01,-0.01 -0.01,-0.02 -0.52,-0.71 -1.16,-1.45 -1.92,-2.25 l 11.87,-4.7 c 4.3,4.74 7.46,9.66 7.67,15.14 z" id="path42"></path><path class="st0" d="m 464.84,211 c -0.55,-0.33 -17.94,-11.09 -21.14,-13.8 -2.44,-2.01 -4.82,-4.49 -6.71,-7.59 -6.08,-11.82 0.71,-17.57 -0.29,-23.14 -0.33,-1.49 -1.06,-2.49 -2.78,-3.07 -1,-0.31 -1.99,-0.41 -2.78,-0.32 -0.99,0.1 -1.99,0.45 -3.05,1.09 -1.08,0.64 -2.22,1.57 -3.5,2.82 -1.51,1.46 -7.43,8.5 -8.94,10.39 -11.13,13.96 -20.79,20.6 -29.17,23.89 -5.11,1.66 -11.56,2.54 -15.1,2.53 -10.4,-0.04 -20.89,-2.44 -32.47,-8.49 -9.69,-5.05 -22.08,-15.54 -37.82,-16.84 -0.51,-0.04 -2.37,-0.14 -2.77,-0.13 h -0.18 c -35.68,0.44 -47.05,36.66 -75.07,36.88 -27.56,0.22 -38.51,-18.33 -49.82,-28.26 -16.89,-14.81 -40.9,1.39 -15.12,22.36 l 17.94,16.25 c 9.9,3.29 18.97,6.63 25.79,11.72 8.9,6.64 28.12,25.52 29.34,47.96 1.17,21.44 -17.54,53.77 -44.93,66.64 -36.76,17.26 -119.59,5.7 -113.52,-46.75 0,0 -1.31,-39.76 19.45,-26.16 0.32,2.46 0.44,3.51 1.12,3.95 0.6,0.39 1.63,0.29 3.63,0.27 0.48,0 1.51,0.24 1.94,0.45 3.13,1.53 6.3,4.63 8.23,7.1 3.62,4.63 7.68,11.94 7.68,11.94 9.55,1.91 19.43,-6.74 24.17,-11.46 7.29,-7.26 11.59,-17.46 11.59,-33.45 0,-25.31 -17.28,-40.52 -20.18,-43.07 -18.62,-16.38 -24.87,-40.47 -11.39,-55.15 7.38,-8.04 18.49,-11.08 25.38,-11.32 14.22,-0.49 27.55,2.17 38.9,10.48 16.09,11.79 22.08,24.07 39.51,24.07 22.53,0 41.76,-36.32 75.9,-34.33 14.44,0.83 26.39,13 35.19,19.16 11.44,8.02 22.25,13.03 32.51,14.77 9.16,2.05 18.82,-0.97 24.95,-4.29 5.23,-2.57 10.29,-5.9 14.69,-9.43 1.64,-1.32 3.15,-2.61 4.53,-3.84 4.89,-4.38 8.17,-8.13 10.16,-10.54 3.93,-5.06 8.78,-6.62 13.99,-6.62 1.23,0 3.02,0.17 4.19,0.45 5.87,1.39 10.31,5.75 10.19,15.27 -0.05,4.04 -1.62,8.5 -2.56,13.14 -0.81,4.05 -2.4,9.3 4.47,18.17 2.96,3.61 8.71,10.32 11.26,13.26 0.53,0.6 2.14,2.43 2.59,3.04 z" id="path30"></path><path class="st1" d="m 354.89,586.54 c 0,0 -39.76,1.31 -26.17,-19.45 2.47,-0.32 3.52,-0.44 3.95,-1.11 0.39,-0.6 0.29,-1.64 0.27,-3.64 0,-0.48 0.24,-1.5 0.45,-1.94 1.53,-3.13 4.63,-6.3 7.1,-8.23 4.64,-3.62 11.94,-7.68 11.94,-7.68 1.91,-9.55 -6.74,-19.43 -11.46,-24.17 -7.25,-7.29 -17.45,-11.58 -33.44,-11.58 -25.31,0 -40.52,17.27 -43.07,20.17 -16.38,18.62 -39.15,23.26 -55.16,11.39 -3.73,-2.76 -10.99,-9.46 -11.32,-25.37 -0.33,-16.09 2.83,-29.17 10.49,-38.9 12.32,-15.69 24.06,-22.09 24.06,-39.51 0,-22.54 -36.31,-41.77 -34.33,-75.91 0.66,-11.28 7.89,-21.12 14.11,-29.19 0.03,-0.03 0.05,-0.06 0.07,-0.09 1.72,-2.22 3.36,-4.31 4.76,-6.25 2.11,-2.92 3.94,-5.86 5.54,-8.79 0.08,-0.15 0.16,-0.29 0.24,-0.44 0.35,-0.66 0.69,-1.31 1.02,-1.97 0.06,-0.11 0.12,-0.23 0.17,-0.34 4.14,-8.33 6.34,-16.5 7.02,-23.74 0.04,-0.39 0.07,-0.78 0.08,-1.18 0.01,-0.14 0.02,-0.29 0.02,-0.43 0.1,-2.32 -0.07,-4.7 -0.47,-7.11 -0.04,-0.32 -0.1,-0.64 -0.16,-0.96 0,-0.02 -0.01,-0.04 -0.01,-0.07 -0.91,-4.85 -2.7,-9.79 -5.07,-14.52 -1.33,-2.63 -2.83,-5.19 -4.47,-7.63 -0.01,-0.02 -0.02,-0.04 -0.04,-0.07 -2.98,-4.69 -6.92,-9.12 -8.86,-11.21 -0.41,-0.44 -0.72,-0.77 -0.93,-0.98 -0.05,-0.07 -0.12,-0.13 -0.19,-0.2 -0.02,-0.02 -0.04,-0.04 -0.05,-0.05 -0.33,-0.34 -0.77,-0.79 -1.19,-1.21 -0.42,-0.41 -0.8,-0.79 -0.99,-0.97 -6.13,-6.23 -11.47,-12.53 -11.47,-19.67 0,-2.47 0.9,-5.53 2.35,-7.48 1.23,-1.66 2.89,-3.02 4.89,-4.04 2.66,-1.36 5.9,-2.1 9.47,-2.13 4.04,-0.03 8.42,1.99 13.02,3.12 3.91,0.97 8.45,-0.34 12.89,-2.62 0.1,-0.05 0.21,-0.11 0.31,-0.16 0.09,-0.06 0.19,-0.11 0.29,-0.18 0.06,-0.03 0.13,-0.07 0.19,-0.11 1.09,-0.66 2.45,-1.47 3.17,-2.03 0.01,-0.01 0.01,-0.01 0.02,-0.02 0.05,-0.03 0.1,-0.07 0.14,-0.11 1.83,-1.3 3.4,-2.47 4.78,-3.55 0.52,-0.41 1.05,-0.81 1.57,-1.24 1.44,-1.16 2.64,-2.19 3.68,-3.07 1,-0.86 1.85,-1.6 2.61,-2.21 0.03,-0.03 0.05,-0.05 0.08,-0.07 0.31,-0.27 0.63,-0.54 0.93,-0.79 0.62,-0.53 1.2,-1.03 1.71,-1.44 0.11,-0.09 0.22,-0.18 0.33,-0.27 0.58,-0.49 1.02,-0.85 1.2,-0.99 -2.04,3.38 -3.78,7.32 -6.16,11.03 -2.13,3.33 -7.73,12.95 -17.36,16.73 -4.25,1.32 -12.24,0.78 -17.61,0.32 -2.42,-0.23 -4.33,-0.43 -6.25,1.9 -0.67,1.03 -0.97,2.5 -1,3.67 -0.08,1.64 1.04,3.68 2.71,5.17 1.04,0.9 1.82,1.41 2.9,2.27 30.37,22.18 33.06,38.67 33.94,51.17 0.77,10.79 -2.18,21.64 -8.47,33.66 -5.41,10.34 -15.55,23.62 -15.59,40.89 -0.04,17.95 7.56,28.25 15.86,37.17 0,0 0.01,0.01 0.02,0.01 0.79,0.85 1.59,1.69 2.38,2.52 0.13,0.13 0.26,0.26 0.39,0.4 0.22,0.22 0.44,0.45 0.66,0.68 0.54,0.55 1.11,1.15 1.72,1.78 1.61,1.67 3.2,3.34 4.7,5.05 6.41,7.27 11.42,15.31 11.15,27.64 -0.17,7.65 -1.66,14.02 -3.93,19.47 -0.08,0.19 -0.16,0.39 -0.25,0.58 -5.97,13.83 -17,21.71 -24.07,29.77 -14.82,16.89 1.39,40.9 22.36,15.12 l 16.24,-17.94 c 3.3,-9.9 6.21,-18.39 11.1,-26.31 0.5,-0.81 1.56,-2.49 3.24,-4.67 1.2,-1.57 6.7,-7.46 7.9,-8.54 0.45,-0.41 2.88,-2.46 3.26,-2.75 7.86,-6.24 19.13,-12.23 34.39,-13.82 16.37,-1.71 36.03,8.09 50.64,23.15 6.51,6.72 12.02,14.48 15.79,22.74 16.87,36.96 5.72,119.6 -46.73,113.53 z" id="path34"></path><path class="st0" d="m 635.6,305.2 c 0,0 1.31,39.76 -19.44,26.16 -0.33,-2.46 -0.45,-3.51 -1.12,-3.95 -0.6,-0.39 -1.64,-0.28 -3.64,-0.27 -0.48,0 -1.5,-0.24 -1.94,-0.45 -3.13,-1.53 -6.3,-4.62 -8.23,-7.09 -3.61,-4.64 -7.67,-11.94 -7.67,-11.94 -9.56,-1.92 -19.44,6.73 -24.18,11.45 -7.29,7.26 -11.58,17.46 -11.58,33.45 0,25.31 17.28,40.52 20.17,43.07 18.62,16.38 23.26,39.14 11.39,55.15 -2.76,3.73 -9.46,11.29 -25.37,11.32 -11.01,0.03 -26.23,-1 -38.9,-10.48 -15.98,-11.95 -22.09,-24.07 -39.51,-24.07 -22.28,0 -44.71,34.55 -74.75,34.36 -0.2,0 -0.97,-0.02 -1.16,-0.02 -10.42,-0.27 -17.26,-5.7 -23.83,-11.61 -14.61,-15.06 -34.27,-24.86 -50.64,-23.15 -14.78,1.54 -25.82,7.21 -33.64,13.24 -4.98,3.84 -10.71,10.3 -11.91,11.87 -1.08,1.17 -4.13,4.06 -4.63,4.47 -2.4,1.75 -4.83,3.21 -7.31,4.16 -2.2,0.85 -4.44,1.3 -6.75,1.23 -0.15,0 -3.47,-0.49 -4.78,-1.07 -2.22,-0.99 -4.04,-2.64 -5.4,-4.76 -1.91,-3.02 -2.89,-7.01 -2.74,-11.45 0.15,-4.04 2.25,-8.22 3.68,-12.88 0.19,-0.63 0.69,-2.61 0.74,-2.96 0.54,-2.54 0.6,-5.65 -1.87,-10.54 -0.24,-0.51 -2.55,-4.68 -3.6,-5.97 -4.74,-6.03 -11.46,-12.47 -13.03,-14.32 0.28,0.14 1.47,0.76 3.12,1.65 4.05,2.19 10.85,5.99 13.46,8.28 2.74,2.44 5.01,5.19 7.07,9.66 7.73,16.72 -2.56,27.13 4.2,29.43 1.11,0.42 2.58,0.5 4.05,0.14 1.98,-0.53 3.88,-1.62 5.66,-3.01 2.65,-2.01 9.78,-11.2 11.77,-13.13 20.24,-22.68 34.88,-24.68 46.3,-25.04 15.24,0.04 25.57,4.77 34.31,9.8 4.03,2.32 26.76,17.4 36.22,18.2 8.67,0 11.37,-1.19 16.42,-3.5 5.17,-2.37 10.53,-5.46 14.89,-8.49 1.56,-1.08 3.06,-2.22 4.51,-3.39 0.01,-0.01 0.02,-0.02 0.04,-0.02 -0.01,0.01 -0.02,0.02 -0.02,0.03 0.04,-0.03 0.08,-0.06 0.12,-0.1 0.25,-0.19 0.63,-0.51 1.11,-0.92 0.1,-0.08 0.2,-0.17 0.3,-0.26 0.27,-0.22 0.56,-0.46 0.86,-0.72 0.01,-0.02 0.02,-0.03 0.04,-0.04 2.8,-2.39 6.46,-5.62 7.47,-6.54 1.34,-1.22 13.08,-10.17 12.69,-10.17 4.04,-2.19 8.29,-2.77 12.03,-2.16 0.3,0.06 0.6,0.12 0.9,0.17 3.18,0.74 6.16,1.79 9.01,2.35 0.47,0.1 0.93,0.18 1.39,0.24 0.25,0.04 0.51,0.07 0.77,0.1 0.65,0.07 1.29,0.09 1.93,0.07 3.38,-0.13 6.46,-0.88 9.01,-2.18 14.93,5.77 23.12,17.41 31.51,24.78 16.89,14.81 40.91,-1.39 15.13,-22.36 l -17.95,-16.24 c -9.89,-3.3 -19.03,-7.7 -25.79,-11.72 -2,-1.19 -4.07,-2.63 -6.16,-4.29 -2.1,-1.97 -4.24,-3.96 -4.24,-3.96 -2.73,-2.45 -9.36,-9.22 -14,-18.39 -3.71,-6.79 -6.28,-15.22 -6.15,-24.99 0.65,-12.29 6.43,-24.4 13.81,-35.02 0.32,-0.48 0.67,-0.99 1.05,-1.52 0.71,-0.97 1.45,-1.93 2.22,-2.88 7.81,-9.72 17.81,-18.27 29.06,-23.55 36.77,-17.27 119.59,-5.71 113.52,46.74 z" id="path38"></path></g><g id="g22"> <path class="st0" d="m 269.16,286.47 c 0,-10.37 6.56,-16.39 14.94,-16.39 3.97,0 7.22,1.89 9.33,3.98 l -3.9,4.38 c -1.49,-1.38 -3.18,-2.24 -5.44,-2.24 -4.44,0 -7.69,3.77 -7.69,10.04 0,6.43 3.24,10.16 7.96,10.16 2.26,0 4.12,-1.11 5.64,-2.76 l 3.9,4.28 c -2.55,3.02 -6.05,4.59 -10.26,4.59 -7.77,0.01 -14.48,-5.49 -14.48,-16.04 z" id="path6"></path> <path class="st0" d="m 301.97,286.16 c 0,-10.45 5.13,-16.07 12.58,-16.07 7.45,0 12.58,5.62 12.58,16.07 0,10.7 -5.13,16.36 -12.58,16.36 -7.45,0 -12.58,-5.66 -12.58,-16.36 z m 17.91,0 c 0,-6.5 -2.06,-9.96 -5.32,-9.96 -3.26,0 -5.32,3.46 -5.32,9.96 0,6.75 2.06,10.25 5.32,10.25 3.26,-0.01 5.32,-3.5 5.32,-10.25 z" id="path8"></path> <path class="st0" d="m 337.29,270.66 h 10.52 c 6.5,0 11.46,1.78 11.46,7.75 0,2.81 -1.67,5.8 -5.35,6.76 v 0.19 c 4.47,0.82 6.81,3.18 6.81,7.36 0,6.37 -5.22,9.22 -12.03,9.22 h -11.42 v -31.28 z m 10.2,12.56 c 3.44,0 4.87,-1.45 4.87,-3.81 0,-2.33 -1.53,-3.24 -4.82,-3.24 h -3.18 v 7.05 z m 0.64,13.21 c 3.85,0 5.69,-1.4 5.69,-4.25 0,-2.75 -1.8,-3.88 -5.69,-3.88 h -3.77 v 8.13 z" id="path10"></path> <path class="st0" d="m 370.69,270.66 h 11.12 c 6.63,0 12.08,2.3 12.08,9.75 0,7.19 -5.45,10.28 -12.08,10.28 h -4.03 v 11.25 h -7.09 z m 10.54,14.41 c 3.72,0 5.71,-1.6 5.71,-4.66 0,-3.09 -2,-4.13 -5.71,-4.13 h -3.45 v 8.79 z m 4.18,-0.78 9.98,17.66 h -7.92 l -6.96,-13.12 z" id="path12"></path> <path class="st0" d="m 411.11,270.66 h 8.49 l 9.74,31.28 h -7.51 l -4.04,-15.84 c -0.79,-3.12 -1.74,-6.79 -2.5,-10.09 h -0.19 c -0.77,3.3 -1.63,6.97 -2.43,10.09 l -4.07,15.84 h -7.25 z m -3.29,18.33 h 14.97 v 5.52 h -14.97 z" id="path14"></path> <path class="st0" d="m 305.35,320.3 h 7.2 l 0.9,16.31 c 0.08,2.62 0.13,4.94 0.17,7.69 h 0.17 c 0.43,-2.75 0.99,-5.1 1.5,-7.67 l 2.06,-8.55 h 4.44 l 1.93,8.55 c 0.49,2.5 1.04,4.86 1.5,7.67 h 0.19 c 0.05,-2.82 0.08,-5.13 0.16,-7.67 l 0.87,-16.32 h 6.74 l -3.8,30.64 h -7.4 l -1.82,-9.49 c -0.37,-1.95 -0.71,-4 -0.82,-5.85 h -0.14 c -0.19,1.85 -0.44,3.9 -0.81,5.85 l -1.75,9.49 h -7.24 z" id="path16"></path> <path class="st0" d="m 344,320.32 h 8.31 l 9.54,30.63 h -7.35 l -3.95,-15.51 c -0.78,-3.06 -1.71,-6.64 -2.45,-9.88 h -0.19 c -0.75,3.23 -1.6,6.82 -2.38,9.88 l -3.98,15.51 h -7.09 z m -3.23,17.94 h 14.66 v 5.4 h -14.66 z" id="path18"></path> <path class="st0" d="m 366.46,320.32 h 10.87 c 6.65,0 12,2.41 12,9.85 0,7.21 -5.5,10.39 -12,10.39 h -3.93 v 10.39 h -6.93 v -30.63 z m 10.47,14.73 c 3.8,0 5.6,-1.7 5.6,-4.89 0,-3.2 -1.95,-4.35 -5.6,-4.35 h -3.53 v 9.24 z" id="path20"></path> </g></g><g inkscape:groupmode="layer" id="layer2" inkscape:label="logo" transform="translate(-65.269858,-10.041517)"><path class="st1" d="m -183.52,397.16 c -2.03,5.53 -8.03,8.98 -15.6,9.25 -4.04,0.14 -8.47,-1.76 -13.1,-2.76 -4.03,-0.88 -8.76,-0.36 -13.22,2.14 2.47,-1.52 -10.96,8.71 -12.4,10.02 -1.35,1.23 -7.46,6.62 -9.9,8.58 0.25,-0.42 8.55,-13.17 11.41,-17.9 2.11,-3.48 7.81,-9.08 12.42,-10.75 10.33,-4 20.15,-0.83 23.6,-2.82 1.45,-0.93 1.89,-3.86 1.79,-4.45 -0.15,-1.4 -0.72,-2.77 -1.88,-4.34 0,0 -0.01,-0.01 -0.01,-0.02 -0.52,-0.71 -1.16,-1.45 -1.92,-2.25 -1.44,-1.54 -8.38,-7.57 -10.25,-9.1 -10.82,-8.92 -17.14,-16.86 -20.89,-23.94 -0.01,-0.01 -0.01,-0.01 -0.01,-0.02 -4.37,-8.26 -5.85,-15.31 -5.68,-21.49 0.27,-11.1 3.55,-20.39 10.03,-31.79 4.21,-7.41 11.13,-16.59 13.96,-27.59 1.04,-5.09 1.68,-9.28 1.69,-12.06 0.09,-39.92 -37.03,-49.31 -36.89,-75.25 0.16,-27.56 18.34,-38.51 28.26,-49.82 14.81,-16.89 -1.39,-40.9 -22.36,-15.12 l -16.24,17.94 c -3.3,9.9 -6.69,18.93 -11.72,25.79 -5.92,8.06 -28.39,29.35 -47.96,29.34 -21.38,-0.02 -53.93,-21 -66.64,-44.93 -19.06,-35.87 -5.71,-119.59 46.74,-113.52 0,0 39.76,-1.31 26.17,19.45 -2.47,0.32 -3.52,0.44 -3.96,1.12 -0.38,0.6 -0.28,1.63 -0.27,3.63 0.01,0.48 -0.24,1.51 -0.45,1.94 -1.53,3.13 -4.62,6.3 -7.09,8.23 -4.64,3.62 -11.94,7.68 -11.94,7.68 -1.91,9.56 6.73,19.43 11.45,24.17 7.26,7.29 17.46,11.59 33.45,11.59 25.31,0 40.52,-17.28 43.07,-20.18 16.38,-18.62 39.15,-23.26 55.16,-11.39 3.72,2.76 10.99,9.46 11.31,25.38 0.34,16.08 -2.83,29.16 -10.48,38.9 -12.32,15.68 -24.07,22.08 -24.07,39.51 0,22.37 35.81,41.49 34.37,75.19 -0.01,0.23 -0.02,0.47 -0.03,0.71 -0.84,14.44 -15.29,28.08 -20.35,35.8 -7.38,10.63 -13.16,22.74 -13.81,35.02 -0.13,9.77 2.44,18.2 6.15,25 4.64,9.16 11.27,15.94 14,18.39 0,0 4.92,4.58 7.15,6.73 4.3,4.74 7.46,9.66 7.67,15.14 0.01,0.15 -0.24,3.5 -0.73,4.85 z" id="path49"></path><path class="st0" d="m -228.86,216.63 c -0.55,-0.33 -17.94,-11.09 -21.14,-13.8 -2.44,-2.01 -4.82,-4.49 -6.71,-7.59 -6.08,-11.82 0.71,-17.57 -0.29,-23.14 -0.33,-1.49 -1.06,-2.49 -2.78,-3.07 -1,-0.31 -1.99,-0.41 -2.78,-0.32 -0.99,0.1 -1.99,0.45 -3.05,1.09 -1.08,0.64 -2.22,1.57 -3.5,2.82 -1.51,1.46 -7.43,8.5 -8.94,10.39 -11.13,13.96 -20.79,20.6 -29.17,23.89 -5.11,1.66 -11.56,2.54 -15.1,2.53 -10.4,-0.04 -20.89,-2.44 -32.47,-8.49 -9.69,-5.05 -22.08,-15.54 -37.82,-16.84 -0.51,-0.04 -2.37,-0.14 -2.77,-0.13 h -0.18 c -35.68,0.44 -47.05,36.66 -75.07,36.88 -27.56,0.22 -38.51,-18.33 -49.82,-28.26 -16.89,-14.81 -40.9,1.39 -15.12,22.36 l 17.94,16.25 c 9.9,3.29 18.97,6.63 25.79,11.72 8.9,6.64 28.12,25.52 29.34,47.96 1.17,21.44 -17.54,53.77 -44.93,66.64 -36.76,17.26 -119.59,5.7 -113.52,-46.75 0,0 -1.31,-39.76 19.45,-26.16 0.32,2.46 0.44,3.51 1.12,3.95 0.6,0.39 1.63,0.29 3.63,0.27 0.48,0 1.51,0.24 1.94,0.45 3.13,1.53 6.3,4.63 8.23,7.1 3.62,4.63 7.68,11.94 7.68,11.94 9.55,1.91 19.43,-6.74 24.17,-11.46 7.29,-7.26 11.59,-17.46 11.59,-33.45 0,-25.31 -17.28,-40.52 -20.18,-43.07 -18.62,-16.38 -24.87,-40.47 -11.39,-55.15 7.38,-8.04 18.49,-11.08 25.38,-11.32 14.22,-0.49 27.55,2.17 38.9,10.48 16.09,11.79 22.08,24.07 39.51,24.07 22.53,0 41.76,-36.32 75.9,-34.33 14.44,0.83 26.39,13 35.19,19.16 11.44,8.02 22.25,13.03 32.51,14.77 9.16,2.05 18.82,-0.97 24.95,-4.29 5.23,-2.57 10.29,-5.9 14.69,-9.43 1.64,-1.32 3.15,-2.61 4.53,-3.84 4.89,-4.38 8.17,-8.13 10.16,-10.54 3.93,-5.06 8.78,-6.62 13.99,-6.62 1.23,0 3.02,0.17 4.19,0.45 5.87,1.39 10.31,5.75 10.19,15.27 -0.05,4.04 -1.62,8.5 -2.56,13.14 -0.81,4.05 -2.4,9.3 4.47,18.17 2.96,3.61 8.71,10.32 11.26,13.26 0.53,0.61 2.14,2.44 2.59,3.04 z" id="path53"></path><path class="st1" d="m -338.81,592.17 c 0,0 -39.76,1.31 -26.17,-19.45 2.47,-0.32 3.52,-0.44 3.95,-1.11 0.39,-0.6 0.29,-1.64 0.27,-3.64 0,-0.48 0.24,-1.5 0.45,-1.94 1.53,-3.13 4.63,-6.3 7.1,-8.23 4.64,-3.62 11.94,-7.68 11.94,-7.68 1.91,-9.55 -6.74,-19.43 -11.46,-24.17 -7.25,-7.29 -17.45,-11.58 -33.44,-11.58 -25.31,0 -40.52,17.27 -43.07,20.17 -16.38,18.62 -39.15,23.26 -55.16,11.39 -3.73,-2.76 -10.99,-9.46 -11.32,-25.37 -0.33,-16.09 2.83,-29.17 10.49,-38.9 12.32,-15.69 24.06,-22.09 24.06,-39.51 0,-22.54 -36.31,-41.77 -34.33,-75.91 0.84,-14.44 12.45,-26.52 18.94,-35.53 8.77,-12.15 13.01,-24.7 14,-35.27 0.73,-7.7 -1.61,-16.3 -5.61,-24.27 -1.33,-2.63 -2.83,-5.19 -4.47,-7.63 -0.01,-0.02 -0.02,-0.04 -0.04,-0.07 -3.97,-6.25 -9.65,-12.04 -10.03,-12.44 -0.66,-0.68 -1.81,-1.81 -2.19,-2.18 -6.13,-6.23 -11.47,-12.53 -11.47,-19.67 0,-2.47 0.9,-5.53 2.35,-7.48 2.87,-3.87 8.11,-6.12 14.36,-6.17 4.04,-0.03 8.42,1.99 13.02,3.12 4,0.99 8.66,-0.4 13.2,-2.78 1.21,-0.74 3.04,-1.8 3.81,-2.45 6.79,-4.82 10.22,-8.11 12.72,-10.14 1.9,-1.64 3.74,-3.15 4.17,-3.49 -2.04,3.38 -3.78,7.32 -6.16,11.03 -2.13,3.33 -7.73,12.95 -17.36,16.73 -4.25,1.33 -12.24,0.78 -17.61,0.32 -2.42,-0.23 -4.33,-0.43 -6.25,1.91 -0.67,1.03 -0.97,2.5 -1,3.67 -0.08,1.64 1.04,3.68 2.71,5.17 1.04,0.9 1.82,1.41 2.9,2.27 30.37,22.18 33.06,38.67 33.94,51.17 0.77,10.79 -2.18,21.64 -8.47,33.66 -5.41,10.34 -15.55,23.62 -15.59,40.89 -0.09,39.93 37.62,42 36.88,75.25 -0.61,27.55 -18.33,38.51 -28.25,49.82 -14.82,16.89 1.39,40.9 22.36,15.12 l 16.24,-17.94 c 3.3,-9.9 6.21,-18.39 11.1,-26.31 2.33,-3.78 16.78,-26.44 48.79,-29.78 23.67,-2.47 54.21,19.11 66.43,45.89 16.87,36.94 5.72,119.58 -46.73,113.51 z" id="path57"></path><path class="st0" d="m -58.1,310.84 c 0,0 1.31,39.76 -19.44,26.16 -0.33,-2.46 -0.45,-3.51 -1.12,-3.95 -0.6,-0.39 -1.64,-0.28 -3.64,-0.27 -0.48,0 -1.5,-0.24 -1.94,-0.45 -3.13,-1.53 -6.3,-4.62 -8.23,-7.09 -3.61,-4.64 -7.67,-11.94 -7.67,-11.94 -9.56,-1.92 -19.44,6.73 -24.18,11.45 -7.29,7.26 -11.58,17.46 -11.58,33.45 0,25.31 17.28,40.52 20.17,43.07 18.62,16.38 23.26,39.14 11.39,55.15 -2.76,3.73 -9.46,11.29 -25.37,11.32 -11.01,0.03 -26.23,-1 -38.9,-10.48 -15.98,-11.95 -22.09,-24.07 -39.51,-24.07 -22.28,0 -44.71,34.55 -74.75,34.36 -0.2,0 -0.97,-0.02 -1.16,-0.02 -13.83,-0.36 -21.36,-9.81 -30.3,-17.39 -11.54,-9.58 -24.29,-16.33 -37.42,-17.27 -13.33,-1.02 -33.83,5.02 -47.62,19.56 -7,6.92 -13.21,14.02 -21.07,15.04 -1.31,0.17 -3.33,-0.03 -3.33,-0.03 -8.17,-0.93 -11.94,-9.22 -10.96,-18.81 0.51,-4.36 2.09,-8.4 3.28,-12.98 1.04,-3.99 -0.29,-8.67 -2.62,-13.24 -0.72,-1.22 -1.54,-2.48 -2.19,-3.25 -4.73,-6.86 -12.08,-13.7 -13.54,-15.42 0,0 12.83,6.62 16.64,9.97 2.74,2.44 5.01,5.19 7.07,9.66 7.73,16.72 -2.56,27.12 4.21,29.43 1.11,0.42 2.58,0.5 4.04,0.14 4.59,-1 15.65,-14.62 17.26,-16.42 20.24,-22.68 35.05,-24.4 46.47,-24.76 15.24,0.04 25.57,4.77 34.31,9.8 4.03,2.32 26.76,17.4 36.22,18.2 8.67,0 11.37,-1.19 16.42,-3.5 5.17,-2.37 10.53,-5.46 14.89,-8.49 15.94,-11.07 25.12,-27.44 43.85,-27.02 27.56,0.63 38.51,18.33 49.82,28.26 16.89,14.81 40.91,-1.39 15.13,-22.36 l -17.95,-16.24 c -9.89,-3.3 -19.03,-7.7 -25.79,-11.72 -13.13,-7.84 -29.57,-26.14 -30.71,-48.09 -1.11,-21.44 18.91,-53.65 46.3,-66.51 36.77,-17.26 119.59,-5.7 113.52,46.75 z" id="path61"></path><g id="g67"> <path class="st1" d="m -190.46,377.17 c 4.3,4.74 7.46,9.66 7.67,15.14 0.01,0.15 -0.24,3.5 -0.73,4.85 -2.03,5.53 -8.03,8.98 -15.6,9.25 -4.04,0.14 -8.36,-1.66 -13.1,-2.76 -3.28,-0.57 -6.74,-1.9 -13.39,2.07 -3.13,1.78 -11.36,9.18 -16.92,14.14 -2.59,2.31 -4.59,4.09 -5.23,4.52 0.25,-0.42 8.57,-13.16 11.43,-17.89 2.11,-3.48 7.81,-9.08 12.42,-10.75 10.33,-4 20.15,-0.83 23.6,-2.82 1.45,-0.93 1.89,-3.86 1.79,-4.45 -0.15,-1.4 -0.72,-2.77 -1.88,-4.34 0,0 -0.01,-0.01 -0.01,-0.02 -0.52,-0.71 -1.16,-1.45 -1.92,-2.25" id="path65"></path> </g></g><g inkscape:groupmode="layer" id="layer3" inkscape:label="font" transform="translate(-65.269858,-10.041517)"><g id="g88" transform="translate(13.313296,143.7836)"> <path class="st0" d="m -1278.39,237.16 c 0,-32.86 20.79,-51.93 47.35,-51.93 12.56,0 22.87,6 29.57,12.61 l -12.35,13.88 c -4.73,-4.38 -10.07,-7.11 -17.22,-7.11 -14.07,0 -24.35,11.96 -24.35,31.81 0,20.38 10.28,32.2 25.23,32.2 7.15,0 13.05,-3.52 17.86,-8.76 l 12.35,13.57 c -8.09,9.57 -19.18,14.56 -32.52,14.56 -24.64,0.01 -45.92,-17.4 -45.92,-50.83 z" id="path72"></path> <path class="st0" d="m -1174.4,236.16 c 0,-33.12 16.26,-50.93 39.87,-50.93 23.61,0 39.87,17.81 39.87,50.93 0,33.91 -16.26,51.84 -39.87,51.84 -23.61,0 -39.87,-17.93 -39.87,-51.84 z m 56.73,0 c 0,-20.6 -6.53,-31.55 -16.87,-31.55 -10.34,0 -16.87,10.96 -16.87,31.55 0,21.38 6.53,32.46 16.87,32.46 10.34,0 16.87,-11.08 16.87,-32.46 z" id="path74"></path> <path class="st0" d="m -1062.48,187.05 h 33.34 c 20.6,0 36.31,5.64 36.31,24.56 0,8.9 -5.3,18.38 -16.94,21.42 v 0.61 c 14.16,2.61 21.58,10.08 21.58,23.33 0,20.17 -16.53,29.2 -38.12,29.2 h -36.17 z m 32.3,39.79 c 10.89,0 15.43,-4.6 15.43,-12.08 0,-7.4 -4.84,-10.25 -15.26,-10.25 h -10.08 v 22.33 z m 2.04,41.88 c 12.21,0 18.03,-4.42 18.03,-13.46 0,-8.7 -5.7,-12.29 -18.03,-12.29 h -11.95 v 25.75 z" id="path76"></path> <path class="st0" d="m -956.68,187.05 h 35.24 c 21,0 38.28,7.3 38.28,30.88 0,22.78 -17.28,32.58 -38.28,32.58 h -12.76 v 35.66 h -22.48 z m 33.42,45.66 c 11.78,0 18.11,-5.07 18.11,-14.78 0,-9.79 -6.32,-13.08 -18.11,-13.08 h -10.94 v 27.85 h 10.94 z m 13.23,-2.48 31.63,55.94 h -25.09 l -22.06,-41.57 z" id="path78"></path> <path class="st0" d="m -828.59,187.05 h 26.89 l 30.87,99.12 h -23.79 l -12.8,-50.18 c -2.51,-9.9 -5.53,-21.51 -7.91,-31.97 h -0.61 c -2.43,10.46 -5.18,22.07 -7.69,31.97 l -12.88,50.18 h -22.96 z m -10.44,58.07 h 47.43 v 17.48 h -47.43 z" id="path80"></path> <path class="st0" d="m -1165.42,344.34 h 22.81 l 2.85,51.69 c 0.25,8.3 0.41,15.64 0.54,24.36 h 0.55 c 1.36,-8.71 3.15,-16.17 4.77,-24.31 l 6.52,-27.1 h 14.06 l 6.12,27.1 c 1.55,7.93 3.3,15.39 4.77,24.31 h 0.6 c 0.17,-8.93 0.25,-16.27 0.5,-24.31 l 2.77,-51.73 h 21.35 l -12.04,97.09 h -23.44 l -5.77,-30.08 c -1.17,-6.17 -2.25,-12.69 -2.61,-18.54 h -0.45 c -0.61,5.85 -1.4,12.37 -2.57,18.54 l -5.56,30.08 h -22.93 z" id="path82"></path> <path class="st0" d="m -1037.74,344.38 h 26.33 l 30.23,97.05 h -23.29 L -1017,392.3 c -2.46,-9.69 -5.41,-21.06 -7.75,-31.3 h -0.6 c -2.38,10.24 -5.07,21.61 -7.53,31.3 l -12.61,49.13 h -22.48 z m -10.22,56.86 h 46.44 v 17.11 h -46.44 z" id="path84"></path> <path class="st0" d="m -968.34,344.38 h 34.43 c 21.06,0 38.02,7.62 38.02,31.21 0,22.85 -17.43,32.92 -38.02,32.92 h -12.46 v 32.92 h -21.97 z m 33.15,46.7 c 12.04,0 17.75,-5.4 17.75,-15.49 0,-10.13 -6.19,-13.78 -17.75,-13.78 h -11.19 v 29.27 z" id="path86"></path> </g><text xml:space="preserve" style="font-size:150px;line-height:155px;font-family:Arial;-inkscape-font-specification:Arial;letter-spacing:16.5px;fill:#2d3282;stroke:none;stroke-width:1.13386;stroke-linecap:round;stroke-linejoin:round;stroke-miterlimit:5;fill-opacity:1" x="-1008.1976" y="78.380371" id="text710"><tspan style="font-style:normal;font-variant:normal;font-weight:bold;font-stretch:normal;font-size:150px;font-family:'Source Code Pro';-inkscape-font-specification:'Source Code Pro Bold';text-align:center;text-anchor:middle;stroke-width:1.13386;stroke:none;fill:#2d3282;fill-opacity:1" sodipodi:role="line" id="tspan764" x="-1008.1976" y="78.380371">COBRA</tspan><tspan sodipodi:role="line" style="font-style:normal;font-variant:normal;font-weight:bold;font-stretch:normal;font-size:150px;font-family:'Source Code Pro';-inkscape-font-specification:'Source Code Pro Bold';text-align:center;text-anchor:middle;stroke-width:1.13386;stroke:none;fill:#2d3282;fill-opacity:1" x="-1008.1976" y="234.43964" id="tspan712">W<tspan style="letter-spacing:0px;stroke:none;fill:#2d3282;fill-opacity:1" id="tspan856" dx="-10">AP</tspan></tspan></text></g></svg> 