<?xml version="1.0"?>
 <!-- Generator: Adobe Illustrator 24.2.1, SVG Export Plug-In . SVG Version: 6.00 Build 0) --> <svg version="1.1" id="Ebene_1" xmlns="http://www.w3.org/2000/svg" xmlns:xlink="http://www.w3.org/1999/xlink" x="0px" y="0px" viewBox="0 0 445 445" style="enable-background:new 0 0 445 445;" xml:space="preserve" width="445" height="445"> <style type="text/css"> .st0{fill:#FCBC0F;} .st1{fill:#575756;} .st2{fill:#F18619;stroke:#F18619;stroke-miterlimit:10;} .st3{fill:#FFFFFF;} </style> <g> <g> <path class="st0" d="M171.3,312.8l9.6,1.6c-1.2,3.5-3.2,6.2-5.8,8c-2.7,1.8-6,2.8-10,2.8c-6.3,0-11-2.1-14-6.2 c-2.4-3.3-3.6-7.5-3.6-12.5c0-6,1.6-10.7,4.7-14.1c3.1-3.4,7.1-5.1,11.9-5.1c5.4,0,9.7,1.8,12.8,5.3c3.1,3.6,4.6,9,4.5,16.4h-24.1 c0.1,2.8,0.8,5.1,2.3,6.6c1.5,1.6,3.3,2.4,5.5,2.4c1.5,0,2.8-0.4,3.8-1.2C170,316,170.7,314.7,171.3,312.8z M171.8,303.1 c-0.1-2.8-0.8-4.9-2.2-6.3c-1.4-1.4-3-2.2-5-2.2c-2.1,0-3.8,0.8-5.2,2.3c-1.4,1.5-2,3.6-2,6.2H171.8z"></path> <path class="st0" d="M189.2,324.4v-50.1h9.6v50.1H189.2z"></path> <path class="st0" d="M229.6,312.8l9.6,1.6c-1.2,3.5-3.2,6.2-5.8,8c-2.7,1.8-6,2.8-10,2.8c-6.3,0-11-2.1-14-6.2 c-2.4-3.3-3.6-7.5-3.6-12.5c0-6,1.6-10.7,4.7-14.1c3.1-3.4,7.1-5.1,11.9-5.1c5.4,0,9.7,1.8,12.8,5.3c3.1,3.6,4.6,9,4.5,16.4h-24.1 c0.1,2.8,0.8,5.1,2.3,6.6c1.5,1.6,3.3,2.4,5.5,2.4c1.5,0,2.8-0.4,3.8-1.2C228.3,316,229.1,314.7,229.6,312.8z M230.2,303.1 c-0.1-2.8-0.8-4.9-2.2-6.3c-1.4-1.4-3-2.2-5-2.2c-2.1,0-3.8,0.8-5.2,2.3c-1.4,1.5-2,3.6-2,6.2H230.2z"></path> <path class="st0" d="M247.3,288.1h9v5.3c1.2-1.8,2.7-3.3,4.7-4.4c2-1.1,4.2-1.7,6.6-1.7c4.2,0,7.8,1.7,10.7,5 c2.9,3.3,4.4,7.9,4.4,13.8c0,6.1-1.5,10.8-4.4,14.1c-3,3.4-6.6,5-10.8,5c-2,0-3.8-0.4-5.5-1.2c-1.6-0.8-3.3-2.2-5.1-4.1v18.3h-9.6 V288.1z M256.8,305.6c0,4.1,0.8,7.1,2.4,9c1.6,1.9,3.6,2.9,5.9,2.9c2.2,0,4.1-0.9,5.6-2.7c1.5-1.8,2.2-4.7,2.2-8.8 c0-3.8-0.8-6.6-2.3-8.5c-1.5-1.8-3.4-2.8-5.7-2.8c-2.3,0-4.3,0.9-5.8,2.7C257.5,299.4,256.8,302.1,256.8,305.6z"></path> <path class="st0" d="M299.9,274.3v18.4c3.1-3.6,6.8-5.4,11.1-5.4c2.2,0,4.2,0.4,6,1.2c1.8,0.8,3.1,1.9,4,3.1 c0.9,1.3,1.5,2.7,1.8,4.2c0.3,1.5,0.5,4,0.5,7.2v21.3h-9.6v-19.2c0-3.8-0.2-6.2-0.5-7.2c-0.4-1-1-1.8-1.9-2.4 c-0.9-0.6-2.1-0.9-3.5-0.9c-1.6,0-3,0.4-4.3,1.2c-1.3,0.8-2.2,1.9-2.8,3.5c-0.6,1.6-0.9,3.9-0.9,6.9v18.2h-9.6v-50.1H299.9z"></path> <path class="st0" d="M340.2,299.2l-8.7-1.6c1-3.5,2.7-6.1,5.1-7.8c2.4-1.7,5.9-2.5,10.7-2.5c4.3,0,7.5,0.5,9.6,1.5 c2.1,1,3.6,2.3,4.4,3.9c0.9,1.6,1.3,4.4,1.3,8.6l-0.1,11.2c0,3.2,0.2,5.5,0.5,7.1c0.3,1.5,0.9,3.1,1.7,4.9h-9.5 c-0.3-0.6-0.6-1.6-0.9-2.8c-0.2-0.6-0.3-0.9-0.3-1.1c-1.6,1.6-3.4,2.8-5.3,3.6c-1.9,0.8-3.9,1.2-6,1.2c-3.7,0-6.7-1-8.8-3 c-2.2-2-3.2-4.6-3.2-7.7c0-2.1,0.5-3.9,1.5-5.5c1-1.6,2.4-2.8,4.1-3.7c1.8-0.9,4.3-1.6,7.6-2.2c4.5-0.8,7.6-1.6,9.3-2.4v-1 c0-1.8-0.5-3.2-1.4-3.9c-0.9-0.8-2.6-1.2-5.2-1.2c-1.7,0-3,0.3-4,1S340.8,297.5,340.2,299.2z M353.1,306.9 c-1.2,0.4-3.2,0.9-5.8,1.5c-2.7,0.6-4.4,1.1-5.2,1.7c-1.3,0.9-1.9,2-1.9,3.4c0,1.3,0.5,2.5,1.5,3.5c1,1,2.3,1.5,3.8,1.5 c1.7,0,3.4-0.6,5-1.7c1.2-0.9,1.9-1.9,2.3-3.2c0.3-0.8,0.4-2.4,0.4-4.7V306.9z"></path> <path class="st0" d="M405,324.4h-9.6v-18.5c0-3.9-0.2-6.5-0.6-7.6c-0.4-1.2-1.1-2-2-2.7c-0.9-0.6-2-1-3.3-1 c-1.7,0-3.2,0.5-4.5,1.4c-1.3,0.9-2.2,2.1-2.7,3.6c-0.5,1.5-0.7,4.3-0.7,8.3v16.4h-9.6v-36.3h8.9v5.3c3.2-4.1,7.2-6.2,12-6.2 c2.1,0,4.1,0.4,5.8,1.1c1.8,0.8,3.1,1.7,4,2.9c0.9,1.2,1.5,2.5,1.9,4c0.4,1.5,0.5,3.7,0.5,6.5V324.4z"></path> <path class="st0" d="M431.4,288.1v7.7h-6.6v14.6c0,3,0.1,4.7,0.2,5.2c0.1,0.5,0.4,0.9,0.9,1.2c0.4,0.3,1,0.5,1.6,0.5 c0.9,0,2.2-0.3,3.9-0.9l0.8,7.5c-2.2,1-4.8,1.4-7.6,1.4c-1.7,0-3.3-0.3-4.7-0.9c-1.4-0.6-2.4-1.3-3.1-2.3 c-0.7-0.9-1.1-2.2-1.4-3.7c-0.2-1.1-0.3-3.4-0.3-6.8v-15.8h-4.4v-7.7h4.4v-7.2l9.6-5.6v12.8H431.4z"></path> </g> <g> <path class="st1" d="M148.5,360.6V351h7.1v1.6h-5.2v2.1h4.8v1.6h-4.8v2.6h5.4v1.6H148.5z"></path> <path class="st1" d="M157.5,360.6v-9.6h1.9v7.9h4.8v1.6H157.5z"></path> <path class="st1" d="M165.7,360.6V351h7.1v1.6h-5.2v2.1h4.8v1.6h-4.8v2.6h5.4v1.6H165.7z"></path> <path class="st1" d="M180.9,357.1l1.9,0.6c-0.3,1.1-0.8,1.8-1.4,2.3c-0.7,0.5-1.5,0.8-2.6,0.8c-1.3,0-2.3-0.4-3.2-1.3 c-0.8-0.9-1.2-2.1-1.2-3.6c0-1.6,0.4-2.8,1.2-3.7c0.8-0.9,1.9-1.3,3.3-1.3c1.2,0,2.1,0.3,2.9,1c0.4,0.4,0.8,1,1,1.8l-1.9,0.5 c-0.1-0.5-0.4-0.9-0.7-1.2c-0.4-0.3-0.8-0.4-1.3-0.4c-0.7,0-1.3,0.3-1.7,0.8s-0.7,1.3-0.7,2.5c0,1.2,0.2,2.1,0.7,2.6 c0.4,0.5,1,0.8,1.7,0.8c0.5,0,1-0.2,1.3-0.5C180.4,358.3,180.7,357.8,180.9,357.1z"></path> <path class="st1" d="M186.6,360.6v-8h-2.9V351h7.7v1.6h-2.9v8H186.6z"></path> <path class="st1" d="M192.6,360.6V351h4.1c1,0,1.8,0.1,2.2,0.3c0.5,0.2,0.8,0.5,1.1,0.9c0.3,0.4,0.4,0.9,0.4,1.5 c0,0.7-0.2,1.3-0.6,1.8c-0.4,0.5-1.1,0.8-1.9,0.9c0.4,0.2,0.8,0.5,1,0.8c0.3,0.3,0.6,0.8,1.1,1.6l1.2,1.9H199l-1.4-2.1 c-0.5-0.7-0.8-1.2-1-1.4c-0.2-0.2-0.4-0.3-0.6-0.4c-0.2-0.1-0.5-0.1-1-0.1h-0.4v4H192.6z M194.6,355.1h1.4c0.9,0,1.5,0,1.7-0.1 c0.2-0.1,0.4-0.2,0.5-0.4c0.1-0.2,0.2-0.4,0.2-0.7c0-0.3-0.1-0.6-0.3-0.8c-0.2-0.2-0.4-0.3-0.7-0.4c-0.2,0-0.6,0-1.4,0h-1.5V355.1 z"></path> <path class="st1" d="M202,355.9c0-1,0.1-1.8,0.4-2.5c0.2-0.5,0.5-0.9,0.9-1.3c0.4-0.4,0.8-0.7,1.2-0.9c0.6-0.3,1.3-0.4,2.1-0.4 c1.4,0,2.6,0.4,3.4,1.3c0.9,0.9,1.3,2.1,1.3,3.7c0,1.6-0.4,2.8-1.3,3.7c-0.8,0.9-2,1.3-3.4,1.3c-1.4,0-2.6-0.4-3.4-1.3 C202.4,358.6,202,357.4,202,355.9z M204,355.8c0,1.1,0.3,1.9,0.8,2.5c0.5,0.6,1.1,0.8,1.9,0.8c0.8,0,1.4-0.3,1.9-0.8 c0.5-0.6,0.7-1.4,0.7-2.5c0-1.1-0.2-1.9-0.7-2.5c-0.5-0.5-1.1-0.8-1.9-0.8c-0.8,0-1.4,0.3-1.9,0.8 C204.2,353.9,204,354.7,204,355.8z"></path> <path class="st1" d="M212.8,360.6V351h3.1c1.2,0,2,0,2.3,0.1c0.6,0.1,1,0.5,1.4,0.9c0.4,0.5,0.6,1.1,0.6,1.9 c0,0.6-0.1,1.1-0.3,1.5c-0.2,0.4-0.5,0.7-0.8,0.9c-0.3,0.2-0.7,0.4-1,0.5c-0.5,0.1-1.1,0.1-2,0.1h-1.3v3.6H212.8z M214.8,352.6 v2.7h1.1c0.8,0,1.3,0,1.5-0.2c0.3-0.1,0.5-0.3,0.6-0.5c0.1-0.2,0.2-0.5,0.2-0.7c0-0.4-0.1-0.6-0.3-0.9c-0.2-0.2-0.5-0.4-0.8-0.4 c-0.2,0-0.7-0.1-1.4-0.1H214.8z"></path> <path class="st1" d="M221.8,360.6V351h1.9v3.8h3.8V351h1.9v9.6h-1.9v-4.2h-3.8v4.2H221.8z"></path> <path class="st1" d="M234.1,360.6v-4.1l-3.5-5.6h2.3l2.3,3.8l2.2-3.8h2.2l-3.5,5.6v4H234.1z"></path> <path class="st1" d="M240,357.5l1.9-0.2c0.1,0.6,0.3,1.1,0.7,1.4c0.3,0.3,0.8,0.4,1.4,0.4c0.6,0,1.1-0.1,1.4-0.4 c0.3-0.3,0.5-0.6,0.5-0.9c0-0.2-0.1-0.4-0.2-0.6c-0.1-0.2-0.4-0.3-0.7-0.4c-0.2-0.1-0.7-0.2-1.6-0.4c-1-0.3-1.8-0.6-2.2-1 c-0.6-0.5-0.9-1.2-0.9-1.9c0-0.5,0.1-1,0.4-1.4c0.3-0.4,0.7-0.8,1.2-1c0.5-0.2,1.2-0.3,1.9-0.3c1.2,0,2.1,0.3,2.7,0.8 c0.6,0.5,0.9,1.2,1,2.1l-1.9,0.1c-0.1-0.5-0.3-0.9-0.5-1.1c-0.3-0.2-0.7-0.3-1.2-0.3c-0.6,0-1,0.1-1.3,0.3 c-0.2,0.1-0.3,0.3-0.3,0.6c0,0.2,0.1,0.4,0.3,0.6c0.2,0.2,0.8,0.4,1.8,0.6c0.9,0.2,1.6,0.5,2.1,0.7c0.5,0.2,0.8,0.6,1.1,1 c0.3,0.4,0.4,0.9,0.4,1.5c0,0.6-0.2,1.1-0.5,1.6c-0.3,0.5-0.7,0.8-1.3,1.1c-0.6,0.2-1.3,0.4-2.1,0.4c-1.2,0-2.2-0.3-2.8-0.8 C240.5,359.4,240.1,358.6,240,357.5z"></path> <path class="st1" d="M249.4,360.6V351h1.9v9.6H249.4z"></path> <path class="st1" d="M252.8,355.9c0-1,0.1-1.8,0.4-2.5c0.2-0.5,0.5-0.9,0.9-1.3c0.4-0.4,0.8-0.7,1.2-0.9c0.6-0.3,1.3-0.4,2.1-0.4 c1.4,0,2.6,0.4,3.4,1.3c0.9,0.9,1.3,2.1,1.3,3.7c0,1.6-0.4,2.8-1.3,3.7c-0.8,0.9-2,1.3-3.4,1.3c-1.4,0-2.6-0.4-3.4-1.3 C253.3,358.6,252.8,357.4,252.8,355.9z M254.8,355.8c0,1.1,0.3,1.9,0.8,2.5c0.5,0.6,1.1,0.8,1.9,0.8c0.8,0,1.4-0.3,1.9-0.8 c0.5-0.6,0.7-1.4,0.7-2.5c0-1.1-0.2-1.9-0.7-2.5c-0.5-0.5-1.1-0.8-1.9-0.8c-0.8,0-1.4,0.3-1.9,0.8 C255.1,353.9,254.8,354.7,254.8,355.8z"></path> <path class="st1" d="M263.7,360.6v-9.6h1.9v7.9h4.8v1.6H263.7z"></path> <path class="st1" d="M271.5,355.9c0-1,0.1-1.8,0.4-2.5c0.2-0.5,0.5-0.9,0.9-1.3c0.4-0.4,0.8-0.7,1.2-0.9c0.6-0.3,1.3-0.4,2.1-0.4 c1.4,0,2.6,0.4,3.4,1.3c0.9,0.9,1.3,2.1,1.3,3.7c0,1.6-0.4,2.8-1.3,3.7c-0.8,0.9-2,1.3-3.4,1.3c-1.4,0-2.6-0.4-3.4-1.3 C271.9,358.6,271.5,357.4,271.5,355.9z M273.5,355.8c0,1.1,0.3,1.9,0.8,2.5c0.5,0.6,1.1,0.8,1.9,0.8c0.8,0,1.4-0.3,1.9-0.8 c0.5-0.6,0.7-1.4,0.7-2.5c0-1.1-0.2-1.9-0.7-2.5c-0.5-0.5-1.1-0.8-1.9-0.8c-0.8,0-1.4,0.3-1.9,0.8 C273.8,353.9,273.5,354.7,273.5,355.8z"></path> <path class="st1" d="M286.9,357.1v-1.6h4.2v3.8c-0.4,0.4-1,0.7-1.8,1c-0.8,0.3-1.6,0.5-2.3,0.5c-1,0-1.9-0.2-2.6-0.6 c-0.7-0.4-1.3-1-1.7-1.8c-0.4-0.8-0.6-1.6-0.6-2.6c0-1,0.2-1.9,0.6-2.7c0.4-0.8,1-1.4,1.8-1.8c0.6-0.3,1.4-0.5,2.3-0.5 c1.2,0,2.1,0.3,2.8,0.8c0.7,0.5,1.1,1.2,1.3,2.1L289,354c-0.1-0.5-0.4-0.8-0.8-1.1c-0.4-0.3-0.8-0.4-1.4-0.4c-0.8,0-1.5,0.3-2,0.8 c-0.5,0.5-0.8,1.3-0.8,2.4c0,1.1,0.3,2,0.8,2.6c0.5,0.6,1.2,0.9,2,0.9c0.4,0,0.8-0.1,1.2-0.2c0.4-0.2,0.8-0.4,1.1-0.6v-1.2H286.9z "></path> <path class="st1" d="M295.4,360.6v-4.1l-3.5-5.6h2.3l2.3,3.8l2.2-3.8h2.2l-3.5,5.6v4H295.4z"></path> <path class="st1" d="M313.5,360.6h-2.1l-0.8-2.2h-3.9l-0.8,2.2h-2.1l3.8-9.6h2.1L313.5,360.6z M309.9,356.8l-1.3-3.6l-1.3,3.6 H309.9z"></path> <path class="st1" d="M314.6,360.6V351h1.9l3.9,6.4V351h1.8v9.6h-2l-3.9-6.3v6.3H314.6z"></path> <path class="st1" d="M333,360.6h-2.1l-0.8-2.2h-3.9l-0.8,2.2h-2.1l3.8-9.6h2.1L333,360.6z M329.4,356.8l-1.3-3.6l-1.3,3.6H329.4z"></path> <path class="st1" d="M334,360.6v-9.6h1.9v7.9h4.8v1.6H334z"></path> <path class="st1" d="M343.5,360.6v-4.1L340,351h2.3l2.3,3.8l2.2-3.8h2.2l-3.5,5.6v4H343.5z"></path> <path class="st1" d="M349.5,357.5l1.9-0.2c0.1,0.6,0.3,1.1,0.7,1.4c0.3,0.3,0.8,0.4,1.4,0.4c0.6,0,1.1-0.1,1.4-0.4 c0.3-0.3,0.5-0.6,0.5-0.9c0-0.2-0.1-0.4-0.2-0.6c-0.1-0.2-0.4-0.3-0.7-0.4c-0.2-0.1-0.7-0.2-1.6-0.4c-1-0.3-1.8-0.6-2.2-1 c-0.6-0.5-0.9-1.2-0.9-1.9c0-0.5,0.1-1,0.4-1.4c0.3-0.4,0.7-0.8,1.2-1c0.5-0.2,1.2-0.3,1.9-0.3c1.2,0,2.1,0.3,2.7,0.8 c0.6,0.5,0.9,1.2,1,2.1l-1.9,0.1c-0.1-0.5-0.3-0.9-0.5-1.1c-0.3-0.2-0.7-0.3-1.2-0.3c-0.6,0-1,0.1-1.3,0.3 c-0.2,0.1-0.3,0.3-0.3,0.6c0,0.2,0.1,0.4,0.3,0.6c0.2,0.2,0.8,0.4,1.8,0.6c0.9,0.2,1.6,0.5,2.1,0.7c0.5,0.2,0.8,0.6,1.1,1 c0.3,0.4,0.4,0.9,0.4,1.5c0,0.6-0.2,1.1-0.5,1.6c-0.3,0.5-0.7,0.8-1.3,1.1c-0.6,0.2-1.3,0.4-2.1,0.4c-1.2,0-2.2-0.3-2.8-0.8 C350,359.4,349.6,358.6,349.5,357.5z"></path> <path class="st1" d="M358.9,360.6V351h1.9v9.6H358.9z"></path> <path class="st1" d="M362.2,357.5l1.9-0.2c0.1,0.6,0.3,1.1,0.7,1.4c0.3,0.3,0.8,0.4,1.4,0.4c0.6,0,1.1-0.1,1.4-0.4 c0.3-0.3,0.5-0.6,0.5-0.9c0-0.2-0.1-0.4-0.2-0.6c-0.1-0.2-0.4-0.3-0.7-0.4c-0.2-0.1-0.7-0.2-1.6-0.4c-1-0.3-1.8-0.6-2.2-1 c-0.6-0.5-0.9-1.2-0.9-1.9c0-0.5,0.1-1,0.4-1.4c0.3-0.4,0.7-0.8,1.2-1c0.5-0.2,1.2-0.3,1.9-0.3c1.2,0,2.1,0.3,2.7,0.8 c0.6,0.5,0.9,1.2,1,2.1l-1.9,0.1c-0.1-0.5-0.3-0.9-0.5-1.1c-0.3-0.2-0.7-0.3-1.2-0.3c-0.6,0-1,0.1-1.3,0.3 c-0.2,0.1-0.3,0.3-0.3,0.6c0,0.2,0.1,0.4,0.3,0.6c0.2,0.2,0.8,0.4,1.8,0.6c0.9,0.2,1.6,0.5,2.1,0.7c0.5,0.2,0.8,0.6,1.1,1 c0.3,0.4,0.4,0.9,0.4,1.5c0,0.6-0.2,1.1-0.5,1.6c-0.3,0.5-0.7,0.8-1.3,1.1c-0.6,0.2-1.3,0.4-2.1,0.4c-1.2,0-2.2-0.3-2.8-0.8 C362.7,359.4,362.3,358.6,362.2,357.5z"></path> <path class="st1" d="M377.6,360.6v-8h-2.9V351h7.7v1.6h-2.9v8H377.6z"></path> <path class="st1" d="M383,355.9c0-1,0.1-1.8,0.4-2.5c0.2-0.5,0.5-0.9,0.9-1.3c0.4-0.4,0.8-0.7,1.2-0.9c0.6-0.3,1.3-0.4,2.1-0.4 c1.4,0,2.6,0.4,3.4,1.3c0.9,0.9,1.3,2.1,1.3,3.7c0,1.6-0.4,2.8-1.3,3.7c-0.8,0.9-2,1.3-3.4,1.3c-1.4,0-2.6-0.4-3.4-1.3 C383.4,358.6,383,357.4,383,355.9z M385,355.8c0,1.1,0.3,1.9,0.8,2.5c0.5,0.6,1.1,0.8,1.9,0.8c0.8,0,1.4-0.3,1.9-0.8 c0.5-0.6,0.7-1.4,0.7-2.5c0-1.1-0.2-1.9-0.7-2.5c-0.5-0.5-1.1-0.8-1.9-0.8c-0.8,0-1.4,0.3-1.9,0.8 C385.2,353.9,385,354.7,385,355.8z"></path> <path class="st1" d="M393.4,355.9c0-1,0.1-1.8,0.4-2.5c0.2-0.5,0.5-0.9,0.9-1.3c0.4-0.4,0.8-0.7,1.2-0.9c0.6-0.3,1.3-0.4,2.1-0.4 c1.4,0,2.6,0.4,3.4,1.3c0.9,0.9,1.3,2.1,1.3,3.7c0,1.6-0.4,2.8-1.3,3.7c-0.8,0.9-2,1.3-3.4,1.3c-1.4,0-2.6-0.4-3.4-1.3 C393.9,358.6,393.4,357.4,393.4,355.9z M395.5,355.8c0,1.1,0.3,1.9,0.8,2.5c0.5,0.6,1.1,0.8,1.9,0.8s1.4-0.3,1.9-0.8 c0.5-0.6,0.7-1.4,0.7-2.5c0-1.1-0.2-1.9-0.7-2.5c-0.5-0.5-1.1-0.8-1.9-0.8c-0.8,0-1.4,0.3-1.9,0.8 C395.7,353.9,395.5,354.7,395.5,355.8z"></path> <path class="st1" d="M404.4,360.6v-9.6h1.9v7.9h4.8v1.6H404.4z"></path> <path class="st1" d="M412.6,360.6V351h1.9v4.3l3.9-4.3h2.6l-3.6,3.8l3.8,5.9h-2.5l-2.6-4.5l-1.6,1.6v2.9H412.6z"></path> <path class="st1" d="M422.2,360.6V351h1.9v9.6H422.2z"></path> <path class="st1" d="M428.2,360.6v-8h-2.9V351h7.7v1.6h-2.9v8H428.2z"></path> </g> <path class="st2" d="M432.3,118.3c-6.5-2.9-24.2,5.8-54.6,5.1c-27.9-0.6-39.4-5.6-61.6-11.4c-37-9.7-25.9-8.1-62.4-16.5 c-7.3-1.7-13.3-3.2-18.8-4.2c85.6,38.8,35.8,91.6,23.6,139.1c-76-51.7-42.3-118.6-40.7-140.7c-8.4,0.3-17.3,2.7-30.1,8 c-58,23.9-85.9,83.5-106.1,144.2c-15.8,43.1-20.6,53.3-26.5,58.3c-5.8,5.1-13.1,2.4-17.5-1c-4.4-3.5-7.5-10.4-11.3-10.1 c-2.8,0.2-3.7,6.7-5.8,8.7c-1.6,1.5-7.9,3.1-8.3,5.2c-0.6,2.5,0.7,4.7,4.8,9.2c10,11.3,20,14.3,33.3,15 c10.2,0.6,23.5-2.6,33.7-19.7c10.2-17.1,24.6-54.6,28.2-61.2c15.3-28.5,25.2-34.4,37.9-37.1c20.4-4.3,28.6,14.2,32.5,34.5 c2,10.3,6.5,17.9,6.5,17.9l243.6,0L432.3,118.3z"></path> <path id="path34_1_" class="st3" d="M258.1,229.4c-83.6-57-33-132.7-41.1-145.1C325.9,123.3,271,179.3,258.1,229.4"></path> </g> </svg> 